<svg width="269" height="90" viewBox="0 0 269 90" fill="none" xmlns="http://www.w3.org/2000/svg">
<path d="M187.946 58.1097C184.289 58.132 180.665 57.399 177.304 55.9567C170.758 53.173 165.544 47.9621 162.756 41.4174C160.369 35.7413 159.954 29.4286 161.578 23.4889C162.21 21.1943 163.14 18.9924 164.345 16.9396C165.54 14.927 166.984 13.0731 168.643 11.4219C170.302 9.77027 172.161 8.33199 174.177 7.14034C180.077 3.68356 187.06 2.57027 193.742 4.02127C195.575 4.42128 197.363 5.00266 199.08 5.75681C200.758 6.50852 202.355 7.43023 203.845 8.50749C205.328 9.58187 206.699 10.8023 207.938 12.1505L208.798 13.0756L206.587 15.2778C205.96 15.9219 205.222 16.4487 204.41 16.8332C203.547 17.2052 202.615 17.3894 201.675 17.3735C200.358 17.3749 199.072 16.972 197.991 16.2192C196.529 15.2246 194.933 14.4419 193.251 13.8942C189.24 12.6245 184.908 12.8218 181.029 14.4509C178.934 15.3558 177.026 16.6441 175.405 18.2495C173.796 19.8684 172.507 21.7766 171.606 23.8736C170.698 26.0537 170.246 28.397 170.28 30.7585C170.266 33.121 170.754 35.4594 171.713 37.6188C172.634 39.7539 173.948 41.6976 175.585 43.3494C177.293 44.975 179.286 46.2736 181.463 47.1807C183.626 48.0702 185.952 48.4995 188.29 48.4414C191.996 48.39 195.589 47.1599 198.548 44.9294V38.6503H197.009C196.053 38.6589 195.105 38.4694 194.225 38.0936C193.418 37.746 192.688 37.2393 192.081 36.6037C191.486 35.9767 191.019 35.2399 190.705 34.4343C190.384 33.6154 190.22 32.7433 190.222 31.8637V28.982H208.143V49.2273C205.581 52.0247 202.466 54.2589 198.995 55.788C195.523 57.3171 191.772 58.1078 187.979 58.1097" fill="white"/>
<path d="M241.019 58.1087C237.361 58.1292 233.738 57.3963 230.376 55.9556C223.834 53.1687 218.624 47.9585 215.837 41.4163C214.396 38.0542 213.663 34.4315 213.684 30.7738C213.677 24.7844 215.637 18.9583 219.262 14.1903C222.887 9.42227 227.976 5.9759 233.749 4.38039C238.509 3.08674 243.528 3.08674 248.289 4.38039C250.583 5.00977 252.785 5.9373 254.838 7.13926C256.84 8.33267 258.685 9.77094 260.331 11.4208C261.984 13.0739 263.42 14.9308 264.604 16.9467C267.062 21.1343 268.358 25.9019 268.358 30.7574C268.358 35.6129 267.062 40.3805 264.604 44.5681C262.223 48.6283 258.841 52.0104 254.78 54.392C250.595 56.8532 245.825 58.1452 240.97 58.1332M240.97 13.1072C238.624 13.0866 236.298 13.5434 234.134 14.4498C229.894 16.2556 226.517 19.6324 224.711 23.8725C223.798 26.0517 223.328 28.3907 223.328 30.7533C223.328 33.116 223.798 35.455 224.711 37.6341C226.068 40.8359 228.338 43.5672 231.237 45.4873C234.137 47.4075 237.537 48.4314 241.015 48.4314C244.492 48.4314 247.893 47.4075 250.792 45.4873C253.691 43.5672 255.961 40.8359 257.318 37.6341C258.237 35.4579 258.71 33.1196 258.71 30.7574C258.71 28.3952 258.237 26.057 257.318 23.8807C255.519 19.6362 252.14 16.2573 247.896 14.458C245.724 13.5236 243.383 13.0497 241.019 13.0663" fill="white"/>
<path d="M20.8675 58.101H0V3.39853H20.8675C23.3264 3.39226 25.7747 3.71998 28.1453 4.37272C30.4389 5.00787 32.6404 5.93799 34.6946 7.13977C36.7052 8.33801 38.5611 9.77871 40.2205 11.4295C41.8763 13.0874 43.3175 14.9467 44.5102 16.9636C46.9705 21.1473 48.2679 25.9126 48.2679 30.7661C48.2679 35.6196 46.9705 40.3849 44.5102 44.5686C43.3163 46.5848 41.8752 48.4438 40.2205 50.1027C38.5633 51.7733 36.6978 53.2233 34.67 54.417C32.6131 55.6093 30.4122 56.5337 28.1208 57.1677C25.7501 57.8205 23.3018 58.1482 20.8429 58.1419M9.70105 48.4327H20.8347C23.1917 48.4417 25.5258 47.971 27.6951 47.0492C29.7976 46.1574 31.7095 44.8707 33.3274 43.2588C34.9452 41.6375 36.2399 39.7233 37.1423 37.6183C38.061 35.4478 38.5343 33.1148 38.5343 30.7579C38.5343 28.401 38.061 26.0681 37.1423 23.8976C35.3192 19.6569 31.9374 16.278 27.6951 14.4585C25.5285 13.5273 23.1929 13.0535 20.8347 13.0668H9.70105V48.4327Z" fill="white"/>
<path d="M164.067 58.085H157.895C156.545 58.0997 155.22 57.7152 154.088 56.9798C152.951 56.2483 152.058 55.1934 151.525 53.9508L148.251 46.4765H123.446L120.171 53.9426C119.646 55.1832 118.759 56.2362 117.625 56.9634C116.486 57.7066 115.153 58.0967 113.794 58.085H107.621L131.485 3.43164H140.236L164.067 58.085ZM127.76 36.6281H143.961L135.897 17.4143L127.76 36.6281Z" fill="white"/>
<path d="M114.611 2.88307C111.802 0.84604 108.299 0.00710429 104.871 0.550455C101.444 1.09381 98.372 2.97503 96.3304 5.78111L85.1394 21.1718L73.9566 5.78111C72.9737 4.32181 71.7069 3.07548 70.2317 2.11653C68.7566 1.15757 67.1033 0.505631 65.3707 0.199626C63.6381 -0.106379 61.8615 -0.0601797 60.1472 0.335467C58.4328 0.731113 56.8157 1.4681 55.3924 2.50243C53.969 3.53676 52.7687 4.84725 51.863 6.35566C50.9573 7.86408 50.3647 9.53951 50.1207 11.282C49.8767 13.0244 49.9863 14.7981 50.4428 16.4973C50.8994 18.1965 51.6936 19.7863 52.778 21.1718L80.8333 59.7877C81.3097 60.4901 81.9509 61.0651 82.7008 61.4626C83.4507 61.8601 84.2866 62.0679 85.1353 62.0679C85.984 62.0679 86.8199 61.8601 87.5698 61.4626C88.3197 61.0651 88.9609 60.4901 89.4373 59.7877L117.493 21.1718C119.534 18.3638 120.377 14.8603 119.837 11.4311C119.296 8.00181 117.417 4.92731 114.611 2.88307ZM109.437 15.8178L85.1394 49.2516L60.8417 15.8178C60.549 15.4428 60.3347 15.0128 60.2117 14.5533C60.0886 14.0938 60.0593 13.6142 60.1255 13.1431C60.1917 12.6721 60.3521 12.2191 60.597 11.8113C60.8419 11.4035 61.1664 11.0492 61.5511 10.7694C61.9359 10.4897 62.373 10.2902 62.8364 10.1829C63.2999 10.0757 63.7802 10.0628 64.2487 10.145C64.7172 10.2273 65.1644 10.403 65.5636 10.6617C65.9628 10.9204 66.3059 11.2568 66.5723 11.6509L85.1394 37.2256L103.698 11.6836C103.965 11.2895 104.308 10.9531 104.707 10.6944C105.106 10.4357 105.553 10.26 106.022 10.1778C106.49 10.0955 106.971 10.1084 107.434 10.2157C107.898 10.323 108.335 10.5224 108.719 10.8022C109.104 11.0819 109.429 11.4363 109.674 11.8441C109.919 12.2519 110.079 12.7048 110.145 13.1759C110.211 13.647 110.182 14.1265 110.059 14.586C109.936 15.0456 109.722 15.4756 109.429 15.8506" fill="white"/>
<path d="M241.019 58.1087C237.361 58.1292 233.738 57.3963 230.376 55.9556C223.834 53.1687 218.624 47.9585 215.837 41.4163C214.396 38.0542 213.663 34.4315 213.684 30.7738C213.677 24.7844 215.637 18.9583 219.262 14.1903C222.887 9.42227 227.976 5.9759 233.749 4.38039C238.509 3.08674 243.528 3.08674 248.289 4.38039C250.583 5.00977 252.785 5.9373 254.838 7.13926C256.84 8.33267 258.685 9.77094 260.331 11.4208C261.984 13.0739 263.42 14.9308 264.604 16.9467C267.062 21.1343 268.358 25.9019 268.358 30.7574C268.358 35.6129 267.062 40.3805 264.604 44.5681C262.223 48.6283 258.841 52.0104 254.78 54.392C250.595 56.8532 245.825 58.1452 240.97 58.1332M240.97 13.1072C238.624 13.0866 236.298 13.5434 234.134 14.4498C229.894 16.2556 226.517 19.6324 224.711 23.8725C223.798 26.0517 223.328 28.3907 223.328 30.7533C223.328 33.116 223.798 35.455 224.711 37.6341C226.068 40.8359 228.338 43.5672 231.237 45.4873C234.137 47.4075 237.537 48.4314 241.015 48.4314C244.492 48.4314 247.893 47.4075 250.792 45.4873C253.691 43.5672 255.961 40.8359 257.318 37.6341C258.237 35.4579 258.71 33.1196 258.71 30.7574C258.71 28.3952 258.237 26.057 257.318 23.8807C255.519 19.6362 252.14 16.2573 247.896 14.458C245.724 13.5236 243.383 13.0497 241.019 13.0663" fill="white"/>
<path d="M0.0742188 70.0624C1.40259 69.8436 2.74765 69.7423 4.09381 69.7595C5.61846 69.6423 7.13607 70.0622 8.38356 70.9466C8.84607 71.3399 9.21531 71.8311 9.46451 72.3848C9.71372 72.9384 9.83664 73.5405 9.82439 74.1475C9.85054 74.7493 9.75368 75.35 9.53973 75.9131C9.32577 76.4761 8.99922 76.9896 8.58003 77.4221C7.31187 78.522 5.66288 79.0804 3.98738 78.9776C3.55748 78.9838 3.12774 78.9564 2.7021 78.8957V84.3561H0.0742188V70.0624ZM2.7021 76.8163C3.12388 76.9092 3.55582 76.9477 3.98738 76.9309C5.96853 76.9309 7.18014 75.9567 7.18014 74.2621C7.18014 72.5675 6.05858 71.8062 4.22479 71.8062C3.71401 71.7954 3.20354 71.8393 2.7021 71.9371V76.8163Z" fill="white"/>
<path d="M11.9277 69.0879H14.6047V75.3342H14.6457C14.9942 74.8292 15.4601 74.4164 16.0034 74.1312C16.5467 73.846 17.1511 73.697 17.7647 73.6969C19.5494 73.6969 21.4241 74.884 21.4241 78.2404V84.4131H18.7799V78.5024C18.7799 76.9715 18.215 75.8254 16.7496 75.8254C16.2977 75.8356 15.8604 75.9871 15.4991 76.2588C15.1379 76.5305 14.8709 76.9086 14.7357 77.3399C14.6469 77.6032 14.6108 77.8814 14.6293 78.1586V84.4213H11.9277V69.0879Z" fill="white"/>
<path d="M30.134 84.3712L29.962 83.2087H29.9047C29.5272 83.6615 29.0518 84.0228 28.5143 84.2653C27.9769 84.5078 27.3914 84.6252 26.802 84.6086C26.379 84.6321 25.9556 84.5686 25.558 84.4222C25.1603 84.2758 24.7969 84.0495 24.4901 83.7573C24.1833 83.4651 23.9396 83.1131 23.774 82.723C23.6085 82.333 23.5245 81.9132 23.5274 81.4895C23.5274 78.8452 25.8688 77.5108 29.7492 77.5272V77.3389C29.7492 76.6513 29.4627 75.5133 27.6125 75.5133C26.622 75.5147 25.6499 75.7804 24.7963 76.2829L24.2806 74.5637C25.438 73.9281 26.7426 73.609 28.0628 73.6386C31.4274 73.6386 32.3934 75.7671 32.3934 78.0512V81.8415C32.3804 82.6818 32.4296 83.5218 32.5408 84.3548L30.134 84.3712ZM29.7901 79.2546C27.9236 79.2055 26.1307 79.6148 26.1307 81.2112C26.1131 81.4141 26.1402 81.6185 26.2102 81.8098C26.2802 82.0011 26.3914 82.1748 26.5358 82.3184C26.6802 82.4621 26.8545 82.5723 27.0462 82.6412C27.2379 82.7102 27.4424 82.7362 27.6452 82.7175C28.0971 82.7252 28.5398 82.5901 28.9102 82.3314C29.2807 82.0726 29.56 81.7035 29.7083 81.2766C29.7659 81.0884 29.7935 80.8922 29.7901 80.6954V79.2546Z" fill="white"/>
<path d="M35.2014 77.2747C35.2014 75.8503 35.2014 74.8188 35.1113 73.8937H37.4117L37.5018 75.8912H37.5837C37.77 75.2673 38.1461 74.7168 38.6595 74.3163C39.173 73.9158 39.7984 73.6852 40.449 73.6563C40.6581 73.6552 40.8668 73.6772 41.0711 73.7218V76.1777C40.8184 76.1212 40.5605 76.0911 40.3016 76.0877C39.7153 76.0677 39.1432 76.27 38.6999 76.6542C38.2566 77.0383 37.9748 77.5758 37.9111 78.1589C37.8533 78.428 37.8231 78.7023 37.8211 78.9775V84.397H35.2014V77.2747Z" fill="white"/>
<path d="M42.8319 77.0129C42.8319 75.8095 42.8319 74.7943 42.75 73.8938H45.0259L45.1323 75.4411H45.1978C45.5255 74.8813 45.998 74.4201 46.5656 74.106C47.1332 73.792 47.7749 73.6367 48.4233 73.6564C49.0488 73.64 49.664 73.8178 50.1844 74.1652C50.7048 74.5126 51.1048 75.0126 51.3295 75.5966C51.6516 75.0621 52.0946 74.6106 52.623 74.2786C53.2413 73.8485 53.9823 73.6303 54.7351 73.6564C56.4788 73.6564 58.2389 74.8434 58.2389 78.1999V84.3726H55.7093V78.5847C55.7093 76.841 55.1035 75.8095 53.8346 75.8095C53.4195 75.8235 53.0189 75.9656 52.6877 76.2162C52.3564 76.4668 52.1108 76.8137 51.9844 77.2094C51.9053 77.4977 51.8613 77.7946 51.8534 78.0935V84.3726H49.2747V78.3064C49.2747 76.841 48.6934 75.8095 47.4654 75.8095C47.0276 75.8308 46.6078 75.9905 46.2665 76.2656C45.9252 76.5407 45.68 76.917 45.5662 77.3403C45.4668 77.6018 45.4168 77.8793 45.4188 78.159V84.3562H42.8319V77.0129Z" fill="white"/>
<path d="M66.9816 84.373L66.8096 83.2105H66.7442C66.3678 83.6627 65.8938 84.0237 65.3578 84.2661C64.8218 84.5086 64.2377 84.6263 63.6496 84.6104C63.2269 84.6327 62.804 84.5684 62.4069 84.4216C62.0098 84.2747 61.6469 84.0484 61.3403 83.7564C61.0337 83.4644 60.79 83.1129 60.624 82.7234C60.4581 82.3339 60.3733 81.9147 60.375 81.4913C60.375 78.8471 62.7246 77.5126 66.5968 77.529V77.3407C66.5968 76.6531 66.3185 75.5151 64.4683 75.5151C63.4752 75.5163 62.5003 75.7819 61.6439 76.2847L61.1282 74.5655C62.289 73.931 63.5959 73.612 64.9186 73.6404C68.275 73.6404 69.2492 75.7689 69.2492 78.053V81.8433C69.2362 82.6836 69.2854 83.5236 69.3966 84.3566L66.9816 84.373ZM66.6377 79.2564C64.763 79.2073 62.9783 79.6166 62.9783 81.213C62.9609 81.4152 62.9879 81.6188 63.0574 81.8094C63.1269 82.0001 63.2373 82.1733 63.3808 82.3168C63.5243 82.4603 63.6975 82.5707 63.8882 82.6403C64.0789 82.7098 64.2825 82.7368 64.4847 82.7193C64.7613 82.7385 65.0389 82.7003 65.3001 82.6072C65.5613 82.5141 65.8004 82.368 66.0026 82.1782C66.2047 81.9884 66.3654 81.7588 66.4747 81.504C66.584 81.2492 66.6395 80.9745 66.6377 80.6972V79.2564Z" fill="white"/>
<path d="M79.7202 84.0535C78.7775 84.4268 77.7704 84.6104 76.7566 84.5938C73.482 84.5938 71.3535 82.5062 71.3535 79.2561C71.3535 76.0061 73.5066 73.6566 77.1823 73.6566C78.0606 73.6481 78.9318 73.8151 79.7447 74.1477L79.2699 76.1289C78.6418 75.8486 77.9601 75.709 77.2724 75.7196C76.4012 75.7624 75.5799 76.1386 74.9785 76.7702C74.3771 77.4019 74.0417 78.2407 74.0417 79.1129C74.0417 79.9851 74.3771 80.8239 74.9785 81.4555C75.5799 82.0872 76.4012 82.4634 77.2724 82.5062C77.989 82.5146 78.6996 82.3753 79.36 82.0969L79.7202 84.0535Z" fill="white"/>
<path d="M83.6836 73.8945L85.5747 79.5105C85.7957 80.1572 86.0085 80.9513 86.1559 81.5571H86.2214C86.3933 80.9513 86.5898 80.1818 86.7863 79.4941L88.4236 73.8945H91.2725L88.6446 81.0414C87.2038 84.9545 86.1886 86.6983 84.9852 87.7789C84.2142 88.4939 83.2484 88.964 82.21 89.1297L81.6042 86.8948C82.1617 86.753 82.687 86.5056 83.1514 86.1662C83.7571 85.745 84.2515 85.1831 84.5923 84.5288C84.7005 84.3864 84.7591 84.2125 84.7591 84.0336C84.7591 83.8547 84.7005 83.6807 84.5923 83.5383L80.7773 73.8945H83.6836Z" fill="white"/>
<path d="M106.515 84.3724C106.155 84.0122 105.811 83.6438 105.377 83.169C104.235 84.1342 102.779 84.6468 101.284 84.6098C98.0749 84.6098 96.4785 82.6123 96.4785 80.5165C96.4954 79.6222 96.768 78.7514 97.2641 78.0072C97.7603 77.2629 98.4593 76.6764 99.2783 76.3168V76.2514C98.5689 75.4446 98.1585 74.4185 98.1158 73.3451C98.1219 72.826 98.2348 72.3137 98.4476 71.8401C98.6603 71.3665 98.9682 70.9417 99.3522 70.5923C99.7362 70.2429 100.188 69.9762 100.679 69.809C101.171 69.6418 101.692 69.5775 102.209 69.6203C104.256 69.6203 105.803 70.8892 105.803 72.8949C105.803 74.4012 104.943 75.6292 102.807 76.6852V76.7753C103.814 77.9378 104.935 79.2313 105.737 80.0499C106.418 78.8609 106.863 77.5517 107.047 76.194H109.413C109.178 78.1827 108.396 80.0672 107.154 81.6381C107.972 82.5222 108.791 83.4064 109.651 84.3478L106.515 84.3724ZM104.108 81.6872C103.224 80.7621 101.849 79.2313 100.49 77.6594C100.055 77.9099 99.6913 78.2667 99.4321 78.6962C99.173 79.1258 99.0271 79.6141 99.0082 80.1154C99.0019 80.4627 99.0675 80.8076 99.2008 81.1284C99.3342 81.4491 99.5323 81.7389 99.7829 81.9795C100.033 82.2201 100.331 82.4063 100.657 82.5265C100.983 82.6466 101.33 82.6981 101.677 82.6778C102.13 82.6897 102.581 82.6103 103.003 82.4443C103.425 82.2784 103.809 82.0292 104.133 81.7118M100.539 73.1241C100.584 74.0049 100.961 74.8359 101.595 75.4491C102.815 74.6304 103.527 74.0001 103.527 72.9931C103.549 72.7893 103.528 72.5832 103.466 72.3878C103.403 72.1925 103.301 72.0122 103.166 71.8583C103.031 71.7044 102.865 71.5803 102.679 71.4938C102.493 71.4073 102.291 71.3603 102.086 71.3558C101.867 71.3671 101.653 71.4223 101.456 71.5179C101.259 71.6136 101.083 71.7479 100.939 71.9127C100.794 72.0776 100.685 72.2698 100.616 72.4779C100.547 72.686 100.521 72.9057 100.539 73.1241Z" fill="white"/>
<path d="M117.256 84.3729L113.703 69.8664H116.519L117.903 76.4156C118.263 78.1757 118.615 80.0259 118.852 81.4749C119.09 79.944 119.499 78.2003 119.909 76.391L121.48 69.8418H124.256L125.737 76.522C126.106 78.2494 126.409 79.8621 126.621 81.4339H126.662C126.924 79.7966 127.268 78.1593 127.653 76.4156L129.159 69.8664H131.853L127.956 84.3729H125.115L123.617 77.5535C123.257 76.034 122.983 74.4952 122.798 72.9445C122.536 74.4918 122.258 75.8917 121.832 77.5535L120.154 84.3729H117.256Z" fill="white"/>
<path d="M134.562 79.878C134.619 81.7691 136.109 82.5878 137.787 82.5878C138.777 82.6146 139.763 82.4535 140.693 82.1129L141.078 83.9467C139.91 84.3895 138.668 84.6089 137.419 84.5935C134.021 84.5935 132.016 82.5059 132.016 79.2968C132.016 76.3906 133.784 73.6562 137.14 73.6562C140.497 73.6562 141.627 76.456 141.627 78.7565C141.63 79.1319 141.603 79.507 141.545 79.878H134.562ZM139.171 78.0279C139.171 77.0537 138.761 75.4655 137.001 75.4655C135.364 75.4655 134.676 76.9472 134.545 78.0279H139.171Z" fill="white"/>
<path d="M146.458 69.0879H143.789V84.3722H146.458V69.0879Z" fill="white"/>
<path d="M151.991 69.0879H149.322V84.3722H151.991V69.0879Z" fill="white"/>
<path d="M154.849 77.0125C154.849 75.8091 154.849 74.7939 154.768 73.8934H157.093L157.224 75.4652H157.289C157.635 74.8959 158.125 74.4285 158.711 74.1107C159.296 73.7929 159.955 73.636 160.621 73.656C162.455 73.656 164.346 74.843 164.346 78.1504V84.3722H161.702V78.4533C161.702 76.947 161.137 75.8091 159.696 75.8091C159.236 75.8187 158.79 75.9712 158.42 76.2455C158.051 76.5198 157.775 76.9023 157.633 77.3399C157.551 77.605 157.513 77.8814 157.518 78.1586V84.3149H154.849V77.0125Z" fill="white"/>
<path d="M169.036 79.878C169.101 81.7691 170.583 82.5878 172.261 82.5878C173.251 82.6146 174.238 82.4535 175.168 82.1129L175.561 83.9467C174.392 84.3888 173.151 84.6081 171.901 84.5935C168.496 84.5935 166.498 82.5059 166.498 79.2968C166.498 76.3906 168.258 73.6562 171.615 73.6562C174.971 73.6562 176.142 76.456 176.142 78.7565C176.144 79.1322 176.113 79.5074 176.052 79.878H169.036ZM173.645 78.0279C173.645 77.0537 173.236 75.4655 171.467 75.4655C169.83 75.4655 169.142 76.9472 169.011 78.0279H173.645Z" fill="white"/>
<path d="M178.14 81.9406C178.964 82.4044 179.888 82.6628 180.833 82.6938C181.995 82.6938 182.511 82.219 182.511 81.5313C182.511 80.8436 182.077 80.4589 180.784 80.0086C178.745 79.2964 177.878 78.1748 177.902 76.9468C177.902 75.0967 179.433 73.6722 181.865 73.6722C182.825 73.662 183.775 73.875 184.64 74.2944L184.124 76.1691C183.447 75.7853 182.684 75.577 181.905 75.5633C180.956 75.5633 180.44 76.0218 180.44 76.6603C180.44 77.2989 180.939 77.6509 182.274 78.1257C184.165 78.8134 185.049 79.763 185.074 81.3348C185.074 83.2259 183.584 84.6094 180.808 84.6094C179.712 84.6313 178.627 84.384 177.648 83.889L178.14 81.9406Z" fill="white"/>
<path d="M187.111 81.9407C187.936 82.4045 188.86 82.6628 189.805 82.6939C190.967 82.6939 191.483 82.219 191.483 81.5314C191.483 80.8437 191.049 80.4589 189.756 80.0087C187.717 79.2964 186.858 78.1749 186.874 76.9469C186.874 75.0967 188.405 73.6723 190.836 73.6723C191.797 73.6611 192.747 73.8742 193.612 74.2945L193.096 76.1692C192.418 75.7853 191.656 75.5771 190.877 75.5634C189.936 75.5634 189.412 76.0218 189.412 76.6604C189.412 77.2989 189.911 77.651 191.246 78.1258C193.137 78.8134 194.021 79.7631 194.045 81.3349C194.045 83.226 192.556 84.6095 189.78 84.6095C188.674 84.6294 187.581 84.3763 186.596 83.8727L187.111 81.9407Z" fill="white"/>
<path d="M208.896 77.9372H203.428V82.2023H209.543V84.3718H200.775V69.8652H209.216V72.0429H203.428V75.7841H208.896V77.9372Z" fill="white"/>
<path d="M213.522 73.8941L214.766 75.8752C215.11 76.4319 215.413 76.9477 215.715 77.5125H215.781C216.076 76.9313 216.379 76.391 216.681 75.8752L217.844 73.9432H220.734L217.222 78.9779L220.791 84.422H217.803L216.51 82.2525C216.166 81.6958 215.863 81.131 215.56 80.5579H215.519C215.216 81.1555 214.921 81.6713 214.569 82.2525L213.366 84.3401H210.443L214.078 79.0025L210.566 73.8613L213.522 73.8941Z" fill="white"/>
<path d="M222.387 77.3806C222.387 76.0052 222.338 74.9246 222.297 73.8931H224.622L224.753 75.5304C225.143 74.9241 225.685 74.4315 226.326 74.1023C226.968 73.7731 227.684 73.6191 228.404 73.6557C230.819 73.6557 232.817 75.7187 232.817 78.9933C232.817 82.7837 230.426 84.6093 228.044 84.6093C227.474 84.6389 226.905 84.5265 226.39 84.2821C225.874 84.0378 225.427 83.6692 225.088 83.2094H225.048V88.637H222.403L222.387 77.3806ZM225.031 79.9839C225.027 80.2297 225.058 80.475 225.121 80.7125C225.242 81.2387 225.538 81.7083 225.96 82.0444C226.382 82.3806 226.906 82.5633 227.446 82.5626C229.124 82.5626 230.115 81.1627 230.115 79.0997C230.115 77.2496 229.206 75.7432 227.504 75.7432C226.944 75.7502 226.404 75.948 225.972 76.3037C225.54 76.6595 225.243 77.1521 225.129 77.6998C225.062 77.9174 225.026 78.1434 225.023 78.3711L225.031 79.9839Z" fill="white"/>
<path d="M236.844 79.878C236.91 81.7691 238.4 82.5878 240.078 82.5878C241.068 82.6146 242.054 82.4535 242.984 82.1129L243.369 83.9467C242.201 84.3895 240.959 84.6089 239.71 84.5935C236.312 84.5935 234.307 82.5059 234.307 79.2968C234.307 76.3906 236.075 73.6562 239.431 73.6562C242.788 73.6562 243.959 76.456 243.959 78.7565C243.965 79.1323 243.934 79.5079 243.869 79.878H236.844ZM241.453 78.0279C241.453 77.0537 241.044 75.4655 239.276 75.4655C237.639 75.4655 236.951 76.9472 236.82 78.0279H241.453Z" fill="white"/>
<path d="M246.08 77.2747C246.08 75.8503 246.08 74.8188 245.998 73.8937H248.298L248.38 75.8912H248.47C248.655 75.2679 249.03 74.7177 249.542 74.3172C250.054 73.9166 250.678 73.6856 251.327 73.6563C251.537 73.6556 251.745 73.6776 251.95 73.7218V76.1777C251.694 76.1208 251.434 76.0906 251.172 76.0877C250.592 76.0779 250.029 76.2847 249.593 76.6676C249.157 77.0506 248.879 77.5823 248.814 78.1589C248.76 78.4286 248.73 78.7025 248.724 78.9775V84.397H246.08V77.2747Z" fill="white"/>
<path d="M257.271 70.8965V73.8928H259.792V75.8739H257.271V80.4993C257.271 81.7682 257.614 82.4395 258.63 82.4395C258.978 82.4425 259.325 82.3985 259.661 82.3085L259.702 84.3306C259.082 84.5234 258.435 84.6119 257.786 84.5926C257.368 84.6123 256.95 84.5454 256.558 84.3961C256.166 84.2468 255.81 84.0183 255.511 83.7248C254.873 82.8915 254.58 81.8453 254.692 80.8022V75.8903H253.186V73.8928H254.692V71.5269L257.271 70.8965Z" fill="white"/>
<path d="M261.658 81.9407C262.482 82.4045 263.406 82.6628 264.351 82.6939C265.514 82.6939 265.989 82.219 265.989 81.5314C265.989 80.8437 265.563 80.4589 264.269 80.0087C262.223 79.2964 261.363 78.1749 261.38 76.9469C261.38 75.0967 262.91 73.6723 265.342 73.6723C266.303 73.6611 267.253 73.8742 268.117 74.2945L267.601 76.1692C266.927 75.785 266.167 75.5767 265.391 75.5634C264.441 75.5634 263.926 76.0218 263.926 76.6604C263.926 77.2989 264.417 77.651 265.751 78.1258C267.65 78.8134 268.526 79.7631 268.551 81.3349C268.551 83.226 267.069 84.6095 264.286 84.6095C263.198 84.6264 262.122 84.3792 261.15 83.8891L261.658 81.9407Z" fill="white"/>
</svg>
